<?xml version="1.0" encoding="utf-8"?>
<!-- Generator: Adobe Illustrator 25.0.0, SVG Export Plug-In . SVG Version: 6.00 Build 0)  -->
<svg version="1.1" id="Capa_1" xmlns="http://www.w3.org/2000/svg" xmlns:xlink="http://www.w3.org/1999/xlink" x="0px" y="0px"
	 viewBox="0 0 193 193" style="enable-background:new 0 0 193 193;" xml:space="preserve">
<style type="text/css">
	.st0{fill:#FFFFFF;}
</style>
<g>
	<path class="st0" d="M111.2,114C104.5,79.6,73,64,40.8,70.1C44.5,50.8,62.6,35,74.3,20.3c1.7-2.1,2.5-5.7,0-7.7
		c-6.2-4.8-12-6.3-17.3-5.5c-0.4-1-1.3-1.8-2.6-1.4c-18.9,5.9-31.1,26.1-39.3,42.8C4.3,70.6-1.1,96.2,0.2,120.7
		c2,38.7,36.5,75.5,77.6,64.8C107.8,177.7,116.3,140.5,111.2,114z M34.3,145C34.3,144.9,34.3,144.9,34.3,145
		c0.2-0.8,0.4-1.5,0.5-2.2c0.6,0.7,1.1,1.5,1.5,2.4c-0.7,0.1-1.4,0.2-2,0.2C34.3,145.2,34.3,145.1,34.3,145z M25.6,54.2
		c0.5,0.2,1,0.3,1.6,0.4c-1.6,3.2-3.1,6.5-4.4,9.8c-0.5-0.2-1.1-0.2-1.6-0.2C22.5,60.8,24,57.5,25.6,54.2z M21.5,152.4
		c1.3,1.3,2.7,2.6,4.1,3.8c-0.2,0.3-0.4,0.6-0.6,0.9C23.7,155.6,22.5,154,21.5,152.4z M58.5,152.2c-1.7-2.2-2.9-4.5-3.7-7.2
		c0-0.2-0.1-0.4-0.2-0.6c-0.2-0.9-0.4-1.8-0.6-2.8c2.7,3.7,4.9,7.8,6.9,12C60.1,153.3,59.3,152.8,58.5,152.2z"/>
	<path class="st0" d="M117.4,63.9c3.6-14.7,13.5-24.8,20.8-38.1c1.2-2.2,0.7-5.5-1.7-6.6c-4.5-2.1-8.5-4.4-13-6.1
		c-1.4-2.9-5.5-4.8-8.6-2c-5.5,5-11.6,11.4-16.4,18.6c-6.4,7.9-11,17.4-12.6,26.6c-0.2,1.1,0,2.2,0.4,3.2c-0.2,0.4-0.5,0.8-0.7,1.2
		c-1.2,2-0.5,4.8,1.6,5.9c24.4,13.9,34.5,36.6,33.8,60.5c-1.2,3.5-1.6,7.2-1.1,11c-2,12-6.5,24.1-13.2,35.2
		c-1.5,2.5-0.9,4.8,0.5,6.4c0.4,1.2,1.4,2.3,3.2,2.7c38.9,8.8,78.1-9.8,82.3-52.3C196.7,90.6,155.5,57.3,117.4,63.9z M132.3,173.7
		c0.1-0.1,0.3-0.3,0.4-0.4c3.6-0.3,6.8-1.3,9.6-2.9c0,0.1,0.1,0.3,0.1,0.4c0.1,0.4,0.3,0.7,0.4,1
		C139.4,172.6,135.8,173.3,132.3,173.7z M159.9,99.4c-0.4,0.7-0.7,1.4-1,2c0-0.2,0-0.4-0.1-0.6c0-1.4,0.3-2.9,0.7-4.3
		c0,0,0.1,0.1,0.1,0.1c0.2,0.8,0.4,1.6,0.5,2.5C160,99.2,159.9,99.3,159.9,99.4z M178.5,142c0-0.9,0-1.9,0-2.8
		c0.6-1,1.2-2.1,1.6-3.2C179.7,138.1,179.1,140.1,178.5,142z"/>
</g>
</svg>